<svg width="30" height="30" viewBox="0 0 30 30" fill="none" xmlns="http://www.w3.org/2000/svg">
<g clip-path="url(#clip0_227_15)">
<mask id="mask0_227_15" style="mask-type:luminance" maskUnits="userSpaceOnUse" x="0" y="0" width="30" height="30">
<path d="M30 0H0V30H30V0Z" fill="white"/>
</mask>
<g mask="url(#mask0_227_15)">
<g filter="url(#filter0_d_227_15)">
<path d="M17.9024 16.8333L17.5774 16.2994C17.3671 16.4275 17.2516 16.6671 17.2824 16.9115C17.3132 17.1558 17.4846 17.3593 17.7202 17.4311L17.9024 16.8333ZM12.0611 16.8333L12.2434 17.4311C12.4789 17.3593 12.6503 17.1558 12.6812 16.9115C12.7119 16.6671 12.5964 16.4275 12.3861 16.2994L12.0611 16.8333ZM19.9818 12.025C19.9818 13.835 19.0204 15.421 17.5774 16.2994L18.2274 17.3671C20.0274 16.2714 21.2318 14.2891 21.2318 12.025H19.9818ZM14.9818 7.02502C17.7432 7.02502 19.9818 9.2636 19.9818 12.025H21.2318C21.2318 8.57325 18.4336 5.77502 14.9818 5.77502V7.02502ZM9.98177 12.025C9.98177 9.2636 12.2203 7.02502 14.9818 7.02502V5.77502C11.53 5.77502 8.73177 8.57325 8.73177 12.025H9.98177ZM12.3861 16.2994C10.9431 15.421 9.98177 13.835 9.98177 12.025H8.73177C8.73177 14.2891 9.93609 16.2714 11.7361 17.3671L12.3861 16.2994ZM11.8788 16.2354C7.93286 17.4386 4.96127 20.8755 4.43862 25.0753L5.67904 25.2296C6.13979 21.5273 8.76158 18.4928 12.2434 17.4311L11.8788 16.2354ZM4.43862 25.0753C4.30048 26.1853 5.22001 27.025 6.23177 27.025V25.775C5.86283 25.775 5.64667 25.4899 5.67904 25.2296L4.43862 25.0753ZM6.23177 27.025H23.7318V25.775H6.23177V27.025ZM23.7318 27.025C24.7436 27.025 25.6631 26.1853 25.5249 25.0753L24.2844 25.2296C24.3168 25.4899 24.1007 25.775 23.7318 25.775V27.025ZM25.5249 25.0753C25.0023 20.8755 22.0307 17.4386 18.0847 16.2354L17.7202 17.4311C21.2019 18.4928 23.8237 21.5273 24.2844 25.2296L25.5249 25.0753Z" fill="black"/>
</g>
</g>
</g>
<defs>
<filter id="filter0_d_227_15" x="-28.9085" y="5.77502" width="87.7804" height="87.9167" filterUnits="userSpaceOnUse" color-interpolation-filters="sRGB">
<feFlood flood-opacity="0" result="BackgroundImageFix"/>
<feColorMatrix in="SourceAlpha" type="matrix" values="0 0 0 0 0 0 0 0 0 0 0 0 0 0 0 0 0 0 127 0" result="hardAlpha"/>
<feOffset dy="33.3333"/>
<feGaussianBlur stdDeviation="16.6667"/>
<feColorMatrix type="matrix" values="0 0 0 0 0 0 0 0 0 0 0 0 0 0 0 0 0 0 0.1 0"/>
<feBlend mode="normal" in2="BackgroundImageFix" result="effect1_dropShadow_227_15"/>
<feBlend mode="normal" in="SourceGraphic" in2="effect1_dropShadow_227_15" result="shape"/>
</filter>
<clipPath id="clip0_227_15">
<rect width="30" height="30" fill="white"/>
</clipPath>
</defs>
</svg>
